<svg width="186" height="143" viewBox="0 0 186 143" fill="none" xmlns="http://www.w3.org/2000/svg">
<path d="M121.802 95.8352C105.61 109.076 87.7012 118.352 71.8702 122.668C55.9804 126.999 42.4831 126.269 34.7306 119.929C26.9781 113.589 26.0842 102.551 31.3808 89.5567C36.6578 76.6106 48.0012 61.9652 64.1926 48.7242C80.3842 35.4833 98.2933 26.2071 114.124 21.8917C130.014 17.5603 143.512 18.2912 151.264 24.631C159.017 30.9707 159.911 42.0084 154.613 55.0026C149.337 67.9487 137.994 82.5942 121.802 95.8352Z" stroke="url(#paint0_linear_22_79)" stroke-width="1.5"/>
<path d="M113.368 101.129C93.5376 110.491 73.303 115.662 56.6456 116.479C39.9262 117.299 27.1202 113.737 21.6384 105.973C16.1566 98.2078 18.7865 87.357 28.0152 75.9265C37.2099 64.5385 52.8018 52.7929 72.6324 43.4301C92.4628 34.0674 112.698 28.8978 129.355 28.0802C146.075 27.2595 158.88 30.8223 164.362 38.5869C169.844 46.3514 167.214 57.2021 157.985 68.6326C148.79 80.0206 133.199 91.7662 113.368 101.129Z" stroke="url(#paint1_linear_22_79)" stroke-width="1.5"/>
<path d="M64.2501 77.842H62.5401L57.3951 70.057V77.842H55.6851V67.402H57.3951L62.5401 75.172V67.402H64.2501V77.842ZM74.0707 73.507C74.0707 73.817 74.0507 74.097 74.0107 74.347H67.6957C67.7457 75.007 67.9907 75.537 68.4307 75.937C68.8707 76.337 69.4107 76.537 70.0507 76.537C70.9707 76.537 71.6207 76.152 72.0007 75.382H73.8457C73.5957 76.142 73.1407 76.767 72.4807 77.257C71.8307 77.737 71.0207 77.977 70.0507 77.977C69.2607 77.977 68.5507 77.802 67.9207 77.452C67.3007 77.092 66.8107 76.592 66.4507 75.952C66.1007 75.302 65.9257 74.552 65.9257 73.702C65.9257 72.852 66.0957 72.107 66.4357 71.467C66.7857 70.817 67.2707 70.317 67.8907 69.967C68.5207 69.617 69.2407 69.442 70.0507 69.442C70.8307 69.442 71.5257 69.612 72.1357 69.952C72.7457 70.292 73.2207 70.772 73.5607 71.392C73.9007 72.002 74.0707 72.707 74.0707 73.507ZM72.2857 72.967C72.2757 72.337 72.0507 71.832 71.6107 71.452C71.1707 71.072 70.6257 70.882 69.9757 70.882C69.3857 70.882 68.8807 71.072 68.4607 71.452C68.0407 71.822 67.7907 72.327 67.7107 72.967H72.2857ZM79.2935 73.657L81.9635 77.842H80.0285L78.2435 75.037L76.5635 77.842H74.7785L77.4485 73.777L74.7785 69.577H76.7135L78.4985 72.382L80.1785 69.577H81.9635L79.2935 73.657ZM85.2338 70.972V75.547C85.2338 75.857 85.3038 76.082 85.4438 76.222C85.5938 76.352 85.8438 76.417 86.1938 76.417H87.2438V77.842H85.8938C85.1238 77.842 84.5338 77.662 84.1238 77.302C83.7138 76.942 83.5088 76.357 83.5088 75.547V70.972H82.5338V69.577H83.5088V67.522H85.2338V69.577H87.2438V70.972H85.2338Z" fill="url(#paint2_linear_22_79)"/>
<path d="M121.733 71.9964L115.082 66.5571L116.835 65.1233L126.48 73.0105L116.835 80.8976L115.082 79.4638L121.733 74.0245H106.64V71.9964H121.733Z" fill="url(#paint3_linear_22_79)"/>
<defs>
<linearGradient id="paint0_linear_22_79" x1="63.5351" y1="48.1864" x2="117.636" y2="92.1083" gradientUnits="userSpaceOnUse">
<stop stop-color="#FF62B7"/>
<stop offset="1" stop-color="#9F53FF"/>
</linearGradient>
<linearGradient id="paint1_linear_22_79" x1="72.1674" y1="42.7715" x2="110.861" y2="96.4042" gradientUnits="userSpaceOnUse">
<stop stop-color="#FF62B7"/>
<stop offset="1" stop-color="#9F53FF"/>
</linearGradient>
<linearGradient id="paint2_linear_22_79" x1="54.5601" y1="72.5034" x2="85.1132" y2="55.8151" gradientUnits="userSpaceOnUse">
<stop stop-color="#FF52AF"/>
<stop offset="1" stop-color="#9F53FF"/>
</linearGradient>
<linearGradient id="paint3_linear_22_79" x1="106.64" y1="73.0105" x2="122.952" y2="66.8114" gradientUnits="userSpaceOnUse">
<stop stop-color="#FF52AF"/>
<stop offset="1" stop-color="#9F53FF"/>
</linearGradient>
</defs>
</svg>
